<svg width="37" height="38" viewBox="0 0 37 38" fill="none" xmlns="http://www.w3.org/2000/svg">
<g clip-path="url(#clip0_7_105)">
<path d="M18.5004 4.06287C23.441 4.06287 24.0243 4.08028 25.9744 4.17169C27.7766 4.2544 28.756 4.55475 29.4089 4.80722C30.2708 5.1424 30.8889 5.54287 31.5375 6.19146C32.1861 6.84004 32.5866 7.45381 32.9217 8.32005C33.1742 8.97299 33.4746 9.9524 33.5573 11.7545C33.6443 13.7046 33.6661 14.2923 33.6661 19.2285C33.6661 24.1648 33.6487 24.7524 33.5573 26.7025C33.4746 28.5046 33.1742 29.484 32.9217 30.137C32.5866 30.9989 32.1861 31.617 31.5375 32.2656C30.8889 32.9142 30.2752 33.3146 29.4089 33.6498C28.756 33.9023 27.7766 34.2026 25.9744 34.2853C24.0243 34.3724 23.441 34.3942 18.5004 34.3942C13.5599 34.3942 12.9766 34.3768 11.0264 34.2853C9.22433 34.2026 8.24492 33.9023 7.59198 33.6498C6.73009 33.3146 6.11198 32.9142 5.46339 32.2656C4.8148 31.617 4.41433 31.0032 4.07915 30.137C3.82668 29.484 3.52633 28.5046 3.44362 26.7025C3.35656 24.7524 3.3348 24.1648 3.3348 19.2285C3.3348 14.2923 3.35221 13.7046 3.44362 11.7545C3.52633 9.9524 3.82668 8.97299 4.07915 8.32005C4.41433 7.45816 4.8148 6.84004 5.46339 6.19146C6.11198 5.54287 6.72574 5.1424 7.59198 4.80722C8.24492 4.55475 9.22433 4.2544 11.0264 4.17169C12.9766 4.08463 13.5642 4.06287 18.5004 4.06287ZM18.5004 0.728516C13.4772 0.728516 12.846 0.75028 10.8741 0.841692C8.90656 0.933104 7.56151 1.24216 6.38186 1.70357C5.16739 2.17805 4.13574 2.80922 3.10409 3.83652C2.0768 4.86381 1.44127 5.89546 0.971153 7.11428C0.514094 8.28957 0.200682 9.63463 0.10927 11.6065C0.0178585 13.5784 -0.00390625 14.2096 -0.00390625 19.2329C-0.00390625 24.2562 0.0178585 24.8873 0.10927 26.8592C0.200682 28.8267 0.509741 30.1718 0.971153 31.3515C1.44562 32.5659 2.0768 33.5976 3.10409 34.6292C4.13139 35.6565 5.16303 36.292 6.38186 36.7622C7.55715 37.2192 8.90221 37.5326 10.8741 37.624C12.846 37.7155 13.4772 37.7372 18.5004 37.7372C23.5237 37.7372 24.1549 37.7155 26.1268 37.624C28.0943 37.5326 29.4394 37.2236 30.619 36.7622C31.8335 36.2877 32.8652 35.6565 33.8968 34.6292C34.9241 33.6019 35.5596 32.5703 36.0297 31.3515C36.4868 30.1762 36.8002 28.8311 36.8916 26.8592C36.983 24.8873 37.0048 24.2562 37.0048 19.2329C37.0048 14.2096 36.983 13.5784 36.8916 11.6065C36.8002 9.63899 36.4912 8.29393 36.0297 7.11428C35.5553 5.89981 34.9241 4.86816 33.8968 3.83652C32.8695 2.80922 31.8379 2.17369 30.619 1.70357C29.4437 1.24652 28.0987 0.933104 26.1268 0.841692C24.1549 0.75028 23.5237 0.728516 18.5004 0.728516Z" fill="white"/>
<path d="M18.4981 9.73047C13.2528 9.73047 9 13.9833 9 19.2286C9 24.4739 13.2528 28.7267 18.4981 28.7267C23.7434 28.7267 27.9962 24.4739 27.9962 19.2286C27.9962 13.9833 23.7434 9.73047 18.4981 9.73047ZM18.4981 25.3967C15.0941 25.3967 12.33 22.6369 12.33 19.2286C12.33 15.8202 15.0898 13.0605 18.4981 13.0605C21.9065 13.0605 24.6662 15.8202 24.6662 19.2286C24.6662 22.6369 21.9065 25.3967 18.4981 25.3967Z" fill="white"/>
<path d="M28.3763 11.5718C29.6023 11.5718 30.5963 10.5779 30.5963 9.35184C30.5963 8.12576 29.6023 7.13184 28.3763 7.13184C27.1502 7.13184 26.1562 8.12576 26.1562 9.35184C26.1562 10.5779 27.1502 11.5718 28.3763 11.5718Z" fill="white"/>
</g>
<defs>
<clipPath id="clip0_7_105">
<rect width="37" height="37" fill="white" transform="translate(0 0.728516)"/>
</clipPath>
</defs>
</svg>
