<svg width="39" height="39" viewBox="0 0 39 39" fill="none" xmlns="http://www.w3.org/2000/svg">
<g clip-path="url(#clip0_7_118)">
<path fill-rule="evenodd" clip-rule="evenodd" d="M33.2974 6.24883C29.7433 2.69032 25.0103 0.728516 19.9739 0.728516C9.59304 0.728516 1.14322 9.17394 1.13882 19.5548C1.13882 22.8714 2.00536 26.1132 3.65485 28.9679L0.980469 38.7285L10.9654 36.1113C13.7146 37.6113 16.8156 38.403 19.9651 38.403H19.9739C30.3547 38.403 38.8045 29.9576 38.8089 19.5724C38.8089 14.5403 36.8515 9.81174 33.2974 6.25323V6.24883ZM19.9739 35.2184H19.9695C17.1587 35.2184 14.4052 34.4618 12.0035 33.0367L11.4317 32.698L5.50669 34.2507L7.0902 28.4752L6.71632 27.8814C5.1504 25.3918 4.32345 22.5107 4.32345 19.5548C4.32345 10.9246 11.3481 3.90435 19.9871 3.90435C24.1702 3.90435 28.0982 5.53625 31.0541 8.49215C34.01 11.4524 35.6375 15.3804 35.6331 19.5636C35.6331 28.1937 28.6084 35.214 19.9783 35.214L19.9739 35.2184ZM28.56 23.496C28.0894 23.2584 25.7757 22.1236 25.3446 21.9652C24.9136 21.8069 24.6013 21.7277 24.2846 22.2028C23.9722 22.6734 23.0705 23.7335 22.7934 24.0458C22.5207 24.3581 22.2436 24.3977 21.7729 24.1646C21.3023 23.927 19.7847 23.4344 17.9901 21.8289C16.5913 20.5797 15.6456 19.0401 15.3729 18.5695C15.1002 18.0988 15.3421 17.8437 15.5796 17.6106C15.7907 17.3994 16.0503 17.0607 16.2834 16.788C16.5165 16.5153 16.5957 16.3174 16.7541 16.0051C16.9124 15.6927 16.8332 15.4156 16.7145 15.1825C16.5957 14.945 15.6544 12.6313 15.2629 11.69C14.8802 10.7707 14.4931 10.8982 14.2028 10.8806C13.9301 10.8674 13.6134 10.863 13.3011 10.863C12.9888 10.863 12.4786 10.9818 12.0475 11.4524C11.6164 11.9231 10.4024 13.0624 10.4024 15.376C10.4024 17.6897 12.0871 19.9287 12.3246 20.241C12.5577 20.5533 15.6412 25.3082 20.3653 27.3448C21.487 27.8286 22.3667 28.119 23.0485 28.3345C24.1746 28.6908 25.2039 28.6424 26.0132 28.5192C26.9193 28.3829 28.7976 27.38 29.1891 26.2803C29.5805 25.1807 29.5805 24.2393 29.4618 24.0414C29.343 23.8435 29.0307 23.7291 28.56 23.4916V23.496Z" fill="white"/>
</g>
<defs>
<clipPath id="clip0_7_118">
<rect width="37.8284" height="38" fill="white" transform="translate(0.980469 0.728516)"/>
</clipPath>
</defs>
</svg>
